# xmcd
#
# Track frame offsets:
#	150
#	2592
#	13812
#	25693
#	38782
#	51029
#	62961
#	64606
#	76256
#	88659
#	101314
#	115562
#	126176
#	128978
#	140002
#	151394
#	163371
#	173756
#	186798
#	189199
#	200586
#	213041
#	226329
#	227912
#	240760
#	255128
#	267671
#	270508
#
# Disc length: 3809 seconds
#
# Revision: 0
# Processed by: cddbd v1.5.2PL0 Copyright (c) Steve Scherf et al.
# Submitted via: audiograbber 1.83.01
#
DISCID=6d0edf1c
DTITLE=Poker - Welcome To The Pokersaloon
DYEAR=2005
DGENRE=Country
TTITLE0=Soundtrack - Intro: On the Scene
TTITLE1=Tex Williams - Money
TTITLE2=Ferlin Husky - EU The Camel
TTITLE3=Merle Travis - Merles Boogie Woogie
TTITLE4=Bill Monroe - The Race Horse Song
TTITLE5=Flatt and Scruggs - Don't Get Above Raisin'
TTITLE6=Soundtrack - Poker Scene: At the Table
TTITLE7=Merle Travis - Cincinnati Lou
TTITLE8=Hank Snow - The Rumba Boogie
TTITLE9=Hardrock Gunter - Honky Tonk Blues
TTITLE10=Hank Snow - On That Old Hawaiian Shore With You
TTITLE11=Light Crust Doughboys - Pussy Pussy Pussy
TTITLE12=Soundtrack - Poker Scene: Play that Game, Yeah!
TTITLE13=Hank Thompson - A Broken Heart And A Glss Of Beer
TTITLE14=Hank Williams - You Win Again
TTITLE15=Hank Snow - The Golden Rocket
TTITLE16=Ferlin Husky - My Gallina
TTITLE17=The Allen Brothers - Ain't That Skippin' And Flyin'
TTITLE18=Soundtrack - Poker Scene: End of a Game!
TTITLE19=Luke Wills - The Texas Special
TTITLE20=The Texas Top Hands - 12th Street Rag
TTITLE21=The Armstrong Twins - Mandolin Boogie
TTITLE22=Soundtrack - Poker Scene: You are suck
TTITLE23=Tex Williams - Smoke Smoke Smoke
TTITLE24=The Sons Of The Pioneers - Riders In The Sky
TTITLE25=Jesse Ashlock - My Bank Account Is Gone
TTITLE26=Soundtrack - Pokerscene: Finale
TTITLE27=Texas Lightning - Smoke Smoke Smoke
EXTD=
EXTT0=
EXTT1=
EXTT2=
EXTT3=
EXTT4=
EXTT5=
EXTT6=
EXTT7=
EXTT8=
EXTT9=
EXTT10=
EXTT11=
EXTT12=
EXTT13=
EXTT14=
EXTT15=
EXTT16=
EXTT17=
EXTT18=
EXTT19=
EXTT20=
EXTT21=
EXTT22=
EXTT23=
EXTT24=
EXTT25=
EXTT26=
EXTT27=
PLAYORDER=
